<!-- Generated by IcoMoon.io -->
<svg version="1.1" xmlns="http://www.w3.org/2000/svg" width="1878" height="1024" viewBox="0 0 1878 1024">
<title></title>
<g id="icomoon-ignore">
</g>
<path fill="#fff" d="M1379.009 11.989h-880.019c-275.006 0-500.011 225.005-500.011 500.011v0c0 275.006 225.005 500.011 500.011 500.011h880.019c275.006 0 500.011-225.005 500.011-500.011v0c0-275.006-225.005-500.011-500.011-500.011z"></path>
<path fill="#3c4043" d="M1379.009 52.49c61.751 0 121.753 12.25 178.254 36.251 54.751 23.251 103.752 56.501 146.253 98.752 42.251 42.251 75.502 91.502 98.752 146.253 24.001 56.501 36.251 116.503 36.251 178.254s-12.25 121.753-36.251 178.254c-23.251 54.751-56.501 103.752-98.752 146.253-42.251 42.251-91.502 75.502-146.253 98.752-56.501 24.001-116.503 36.251-178.254 36.251h-880.019c-61.751 0-121.753-12.25-178.254-36.251-54.751-23.251-103.752-56.501-146.253-98.752-42.251-42.251-75.502-91.502-98.752-146.253-24.001-56.501-36.251-116.503-36.251-178.254s12.25-121.753 36.251-178.254c23.251-54.751 56.501-103.752 98.752-146.253 42.251-42.251 91.502-75.502 146.253-98.752 56.501-24.001 116.503-36.251 178.254-36.251h880.019zM1379.009 11.989h-880.019c-275.006 0-500.011 225.005-500.011 500.011v0c0 275.006 225.005 500.011 500.011 500.011h880.019c275.006 0 500.011-225.005 500.011-500.011v0c0-275.006-225.005-500.011-500.011-500.011v0z"></path>
<path fill="#3c4043" d="M895.499 547.501v151.253h-48.001v-373.508h127.253c32.251 0 59.751 10.75 82.252 32.251 23 21.5 34.501 47.751 34.501 78.752 0 31.751-11.5 58.001-34.501 79.252-22.25 21.25-49.751 31.751-82.252 31.751h-79.252v0.25zM895.499 371.247v130.253h80.252c19 0 35.001-6.5 47.501-19.25 12.75-12.75 19.25-28.251 19.25-45.751 0-17.25-6.5-32.501-19.25-45.251-12.5-13.25-28.251-19.75-47.501-19.75h-80.252v-0.25z"></path>
<path fill="#3c4043" d="M1217.005 434.748c35.501 0 63.501 9.5 84.002 28.501s30.751 45.001 30.751 78.002v157.503h-45.751v-35.501h-2c-19.75 29.251-46.251 43.751-79.252 43.751-28.251 0-51.751-8.25-70.752-25.001s-28.501-37.501-28.501-62.501c0-26.501 10-47.501 30.001-63.001 20-15.75 46.751-23.501 80.002-23.501 28.501 0 52.001 5.25 70.252 15.75v-11c0-16.75-6.5-30.751-19.75-42.501s-28.751-17.5-46.501-17.5c-26.751 0-48.001 11.25-63.501 34.001l-42.251-26.501c23.251-33.751 57.751-50.501 103.252-50.501zM1155.004 620.252c0 12.5 5.25 23 16 31.251 10.5 8.25 23 12.5 37.251 12.5 20.25 0 38.251-7.5 54.001-22.5s23.751-32.501 23.751-52.751c-15-11.75-35.751-17.75-62.501-17.75-19.5 0-35.751 4.75-48.751 14-13.25 9.75-19.75 21.5-19.75 35.251z"></path>
<path fill="#3c4043" d="M1592.764 442.998l-160.003 368.008h-49.501l59.501-128.753-105.502-239.255h52.251l76.002 183.504h1l74.002-183.504h52.251z"></path>
<path fill="#4285f4" d="M704.564 517c0-15.639-1.389-30.626-4-45.015h-201.199v82.502l115.877 0.014c-4.695 27.445-19.82 50.862-43.001 66.446v53.515h68.988c40.265-37.265 63.363-92.377 63.363-157.49z"></path>
<path fill="#34a853" d="M572.255 620.947c-19.195 12.945-43.932 20.514-72.863 20.514-55.876 0-103.266-37.64-120.253-88.391h-71.14v55.196c35.251 69.946 107.697 117.947 191.393 117.947 57.862 0 106.447-19.014 141.822-51.765l-68.988-53.501z"></path>
<path fill="#fabb05" d="M372.445 512.125c0-14.25 2.375-28.014 6.695-40.987v-55.196h-71.14c-14.57 28.931-22.764 61.571-22.764 96.183s8.236 67.251 22.764 96.183l71.14-55.196c-4.319-12.945-6.695-26.737-6.695-40.987z"></path>
<path fill="#e94235" d="M499.421 382.747c31.57 0 59.862 10.875 82.182 32.126l61.126-61.071c-37.126-34.57-85.516-55.807-143.309-55.807-83.682 0-156.142 48.001-191.393 117.947l71.14 55.196c16.987-50.751 64.376-88.391 120.253-88.391z"></path>
</svg>
