<!-- Generated by IcoMoon.io -->
<svg version="1.1" xmlns="http://www.w3.org/2000/svg" width="1536" height="1024" viewBox="0 0 1536 1024">
<title></title>
<g id="icomoon-ignore">
</g>
<path fill="#fff" d="M109.714 0h1316.571c60.594 0 109.714 49.121 109.714 109.714v804.571c0 60.594-49.121 109.714-109.714 109.714h-1316.571c-60.594 0-109.714-49.121-109.714-109.714v-804.571c0-60.594 49.121-109.714 109.714-109.714z"></path>
<path fill="#231f20" d="M513.358 805.546c0.663-11.633 10.635-20.519 22.268-19.855s20.526 10.635 19.855 22.268c-0.641 11.13-9.833 19.848-20.993 19.892-11.539 0.153-21.022-9.082-21.175-20.621-0.007-0.561 0.007-1.123 0.044-1.684v0zM569.769 805.546v-34.835h-15.161v8.448c-5.248-6.764-13.456-10.562-22.006-10.205-20.205 0.999-35.789 18.179-34.798 38.384 0.926 18.82 15.978 33.872 34.798 34.798 8.55 0.357 16.758-3.44 22.006-10.212v8.455h15.161v-34.835zM1081.681 805.546c0.671-11.633 10.642-20.519 22.268-19.855 11.633 0.663 20.526 10.635 19.863 22.268-0.641 11.13-9.84 19.848-20.993 19.892-11.539 0.153-21.029-9.082-21.182-20.621-0.007-0.561 0.007-1.123 0.044-1.684v0zM1162.174 835.177v1.713h1.582c0.306 0.015 0.605-0.058 0.867-0.211 0.211-0.146 0.335-0.394 0.321-0.656 0.015-0.255-0.109-0.496-0.321-0.634-0.262-0.153-0.561-0.233-0.867-0.211h-1.582zM1163.77 833.967c0.685-0.044 1.356 0.153 1.91 0.554 0.445 0.364 0.692 0.926 0.671 1.502 0.015 0.496-0.175 0.969-0.532 1.312-0.423 0.379-0.962 0.605-1.523 0.641l2.107 2.427h-1.647l-1.953-2.413h-0.627v2.413h-1.37v-6.436h2.967zM1163.362 842.604c0.714 0.007 1.429-0.138 2.092-0.423 0.627-0.27 1.203-0.663 1.691-1.152 2.099-2.114 2.099-5.525 0-7.639-0.488-0.488-1.064-0.875-1.691-1.144-0.663-0.277-1.378-0.423-2.092-0.416-0.729-0.007-1.451 0.139-2.128 0.416-0.649 0.27-1.232 0.656-1.728 1.144-2.092 2.114-2.092 5.525 0 7.639 0.496 0.496 1.086 0.882 1.728 1.152 0.671 0.284 1.4 0.43 2.128 0.423v0zM1163.362 830.285c0.94-0.007 1.873 0.175 2.741 0.547 0.838 0.35 1.596 0.846 2.245 1.48 0.641 0.634 1.152 1.385 1.509 2.209 0.736 1.713 0.736 3.659 0 5.372-0.357 0.824-0.875 1.567-1.509 2.201-0.649 0.634-1.407 1.137-2.245 1.487-0.86 0.379-1.8 0.561-2.741 0.554-2.835 0.029-5.408-1.64-6.546-4.242-0.729-1.713-0.729-3.659 0-5.372 0.357-0.824 0.867-1.574 1.509-2.209s1.407-1.137 2.245-1.48c0.889-0.372 1.837-0.554 2.792-0.547v0zM1138.091 805.546v-62.825h-15.161v36.438c-5.248-6.764-13.448-10.562-22.006-10.205-20.205 0.999-35.782 18.179-34.798 38.384 0.926 18.82 15.978 33.872 34.798 34.798 8.557 0.357 16.758-3.44 22.006-10.205v8.448h15.161v-34.835zM757.805 782.513c9.527-0.182 17.414 7.377 17.632 16.911h-36.147c0.554-9.731 8.769-17.239 18.514-16.911v0zM758.097 768.955c-20.198 1.064-35.709 18.303-34.645 38.501 1.006 19.097 16.539 34.208 35.658 34.681 10.402 0.357 20.577-3.12 28.573-9.775l-7.435-11.218c-5.758 4.607-12.887 7.18-20.264 7.289-10.409 0.875-19.637-6.677-20.839-17.056h51.745c0.146-1.895 0.292-3.79 0.292-5.831-0.146-21.714-13.558-36.591-33.085-36.591v0zM941.023 805.546c0.663-11.633 10.635-20.526 22.268-19.863 11.633 0.671 20.519 10.635 19.855 22.275-0.634 11.13-9.833 19.848-20.985 19.892-11.546 0.153-21.029-9.082-21.182-20.621-0.007-0.561 0.007-1.123 0.044-1.684v0zM997.433 805.546v-34.835h-15.161v8.448c-5.248-6.764-13.456-10.562-22.006-10.205-20.205 0.999-35.789 18.179-34.791 38.384 0.918 18.82 15.963 33.872 34.791 34.798 8.55 0.357 16.758-3.44 22.006-10.212v8.455h15.161v-34.835zM855.464 805.546c-0.802 19.425 14.301 35.819 33.727 36.613 1.144 0.051 2.296 0.036 3.44-0.022 9.104 0.452 18.040-2.515 25.067-8.317l-7.282-12.238c-5.248 3.994-11.633 6.188-18.223 6.269-12.319-0.751-21.692-11.342-20.949-23.66 0.685-11.269 9.673-20.264 20.949-20.949 6.589 0.080 12.975 2.274 18.223 6.269l7.282-12.238c-7.027-5.802-15.963-8.769-25.067-8.317-19.411-1.101-36.037 13.74-37.145 33.151-0.066 1.144-0.073 2.289-0.022 3.44zM1050.782 768.955c-7.53-0.219-14.578 3.696-18.368 10.205v-8.448h-15.015v69.669h15.161v-39.062c0-11.517 4.957-17.931 14.87-17.931 3.244-0.044 6.465 0.554 9.476 1.749l4.665-14.279c-3.462-1.239-7.114-1.881-10.788-1.902v0zM644.693 776.244c-8.587-5.095-18.449-7.624-28.427-7.289-17.64 0-29.003 8.463-29.003 22.305 0 11.371 8.448 18.368 24.047 20.555l7.143 1.020c8.31 1.166 12.246 3.346 12.246 7.289 0 5.387-5.54 8.455-15.89 8.455-8.324 0.233-16.488-2.333-23.172-7.289l-7.143 11.801c8.827 6.167 19.404 9.337 30.169 9.046 20.118 0 31.773-9.483 31.773-22.742 0-12.246-9.177-18.66-24.338-20.847l-7.143-1.020c-6.56-0.875-11.808-2.187-11.808-6.852 0-5.102 4.957-8.164 13.266-8.164 7.632 0.117 15.103 2.172 21.721 5.977l6.56-12.246zM840.157 768.955c-7.53-0.219-14.578 3.696-18.368 10.205v-8.448h-15.016v69.669h15.161v-39.062c0-11.517 4.957-17.931 14.87-17.931 3.244-0.044 6.465 0.554 9.476 1.749l4.658-14.279c-3.455-1.239-7.107-1.881-10.781-1.902v0zM710.863 770.712h-24.776v-21.138h-15.307v21.138h-14.141v13.842h14.141v31.78c0 16.174 6.269 25.803 24.2 25.803 6.691 0.014 13.259-1.852 18.944-5.401l-4.366-12.967c-4.067 2.427-8.681 3.776-13.412 3.936-7.581 0-10.059-4.672-10.059-11.663v-31.482h24.776v-13.849zM484.355 840.381v-43.727c0.991-14.287-9.782-26.678-24.069-27.677-1.115-0.073-2.223-0.080-3.338-0.022-9.811-0.634-19.192 4.111-24.484 12.391-4.833-8.033-13.667-12.785-23.033-12.391-8.156-0.408-15.919 3.528-20.409 10.35v-8.594h-15.154v69.669h15.3v-38.625c-1.239-8.915 4.986-17.144 13.9-18.383 1.050-0.146 2.107-0.19 3.156-0.131 10.059 0 15.161 6.56 15.161 18.368v38.771h15.3v-38.625c-1.152-9.002 5.204-17.239 14.206-18.39 0.948-0.131 1.895-0.168 2.85-0.124 10.35 0 15.307 6.56 15.307 18.368v38.771h15.307z"></path>
<path fill="#ff5f00" d="M639.651 652.333h229.606v-412.606h-229.606z"></path>
<path fill="#eb001b" d="M654.236 446.033c-0.073-80.515 36.883-156.591 100.225-206.303-113.943-89.561-278.909-69.793-368.463 44.143-89.561 113.936-69.793 278.909 44.143 368.463 95.166 74.801 229.154 74.801 324.32 0-63.342-49.712-100.298-125.788-100.225-206.303z"></path>
<path fill="#f79e1b" d="M1179.014 446.033c0 144.914-117.471 262.4-262.392 262.407-58.808 0-115.918-19.753-162.167-56.104 113.943-89.59 133.682-254.586 44.084-368.521-12.887-16.393-27.684-31.197-44.084-44.084 113.936-89.561 278.902-69.793 368.456 44.135 36.351 46.242 56.104 103.352 56.104 162.167z"></path>
<path fill="#f79e1b" d="M1185.274 635.016v-36.571h-4.4l-5.063 25.158-5.051-25.158h-4.4v36.571h3.098v-27.592l4.749 23.796h3.218l4.737-23.849v27.645h3.11zM1157.417 635.016v-30.341h5.641v-6.178h-14.356v6.178h5.641v30.341h3.074z"></path>
<path fill="#c8c8c8" d="M1426.286 0c60.594 0 109.714 49.121 109.714 109.714v804.571c0 60.594-49.121 109.714-109.714 109.714h-1316.571c-60.594 0-109.714-49.121-109.714-109.714v-804.571c0-60.594 49.121-109.714 109.714-109.714h1316.571zM1426.286 36.571h-1316.571c-38.56 0-70.15 29.838-72.942 67.684l-0.201 5.459v804.571c0 38.56 29.838 70.15 67.684 72.942l5.459 0.201h1316.571c38.56 0 70.15-29.838 72.942-67.684l0.201-5.459v-804.571c0-38.56-29.838-70.15-67.684-72.942l-5.459-0.201z"></path>
</svg>
