<!-- Generated by IcoMoon.io -->
<svg version="1.1" xmlns="http://www.w3.org/2000/svg" width="1536" height="1024" viewBox="0 0 1536 1024">
<title></title>
<g id="icomoon-ignore">
</g>
<path fill="#fff" d="M109.714 0h1316.571c60.594 0 109.714 49.121 109.714 109.714v804.571c0 60.594-49.121 109.714-109.714 109.714h-1316.571c-60.594 0-109.714-49.121-109.714-109.714v-804.571c0-60.594 49.121-109.714 109.714-109.714z"></path>
<path fill="#00a2d3" d="M288.158 434.529h82.479c44.276 0 60.949 22.414 58.375 55.399-4.245 54.375-37.121 84.444-80.727 84.444h-22.016c-5.975 0-9.997 3.949-11.625 14.684l-9.445 62.339c-0.611 4.047-2.742 6.425-5.941 6.714h-51.716c-4.866 0-6.597-3.723-5.324-11.787l31.582-199.963c1.264-8.015 5.65-11.83 14.358-11.83z"></path>
<path fill="#1c3d92" d="M894.16 492.287h-27.57c-5.714 0-8.036 4.181-6.218 9.499l34.356 100.614-33.856 47.852c-2.825 3.994-0.645 7.649 3.342 7.649h31.105c4.645 0 6.908-1.186 9.245-4.539l105.663-151.576c3.257-4.671 1.72-9.556-3.615-9.56l-29.409-0.030c-5.047-0.006-7.074 1.99-9.973 6.193l-44.074 63.942-19.608-64.052c-1.207-3.949-4.089-5.99-9.39-5.99v0zM756.847 585.989c-18.12 0-30.748-14.45-28.112-32.17 2.638-17.718 19.563-32.168 37.683-32.168 18.118 0 30.748 14.45 28.11 32.168-2.635 17.72-19.563 32.17-37.681 32.17v0zM779.682 602.201c2.804-2.544 5.669-3.879 5.252-0.73l-0.996 7.542c-0.519 3.93 1.045 6.031 4.715 6.031h27.286c4.59 0 6.833-1.861 7.966-8.966l16.815-105.548c0.845-5.303-0.439-7.904-4.466-7.904h-30.003c-2.706 0-4.017 1.52-4.726 5.652l-1.111 6.497c-0.581 3.391-2.131 3.977-3.574 0.566-5.094-12.057-18.077-17.462-36.287-17.088-42.094 0.866-70.473 32.819-73.506 73.779-2.348 31.684 20.359 56.565 50.279 56.565 21.709-0.002 31.421-6.474 42.356-16.396v0zM596.159 517.945l25.021 0.004c15.64-0.592 26.043-11.425 27.086-30.971 0.647-12.072-7.504-20.706-20.483-20.647l-23.555 0.105-8.070 51.51zM646.194 430.834c27.831 0 53.502 15.089 49.99 52.717-4.166 44.606-28.206 69.449-66.017 69.549h-32.983c-4.756 0-7.040 3.866-8.289 11.823l-6.365 40.598c-0.96 6.129-4.1 9.156-8.758 9.156h-30.718c-4.898 0-6.608-3.131-5.516-10.131l25.392-162.731c1.25-8.004 4.311-10.98 9.737-10.98h73.527z"></path>
<path fill="#00a2d3" d="M1356.725 615.233h-31.497c-2.501 0-4.238-1.961-3.859-4.358l27.697-175.314c0.379-2.397 2.735-4.358 5.239-4.358h31.495c2.503 0 4.238 1.961 3.864 4.358l-27.699 175.314c-0.381 2.397-2.735 4.358-5.239 4.358v0zM1230.851 585.988c-18.118 0-30.746-14.45-28.112-32.17 2.638-17.718 19.565-32.168 37.683-32.168s30.748 14.45 28.11 32.168c-2.635 17.72-19.561 32.17-37.681 32.17v0zM1253.687 602.201c2.804-2.544 5.671-3.879 5.252-0.73l-0.996 7.542c-0.517 3.93 1.045 6.031 4.715 6.031h27.286c4.59 0 6.835-1.861 7.966-8.966l16.817-105.548c0.843-5.303-0.441-7.904-4.468-7.904h-30.001c-2.708 0-4.019 1.52-4.726 5.652l-1.113 6.497c-0.581 3.391-2.131 3.977-3.574 0.566-5.094-12.057-18.077-17.462-36.287-17.088-42.094 0.866-70.47 32.821-73.506 73.779-2.346 31.687 20.362 56.565 50.279 56.565 21.709-0.002 31.423-6.474 42.356-16.396v0zM1070.164 517.945l25.021 0.004c15.64-0.592 26.043-11.423 27.088-30.971 0.645-12.072-7.506-20.706-20.485-20.647l-23.553 0.107-8.072 51.507zM1120.201 430.834c27.831 0 53.5 15.089 49.988 52.717-4.166 44.606-28.206 69.449-66.017 69.551h-32.983c-4.756 0-7.040 3.864-8.287 11.821l-6.367 40.6c-0.96 6.127-4.1 9.154-8.758 9.154h-30.718c-4.898 0-6.606-3.129-5.513-10.131l25.39-162.731c1.25-8.004 4.311-10.98 9.737-10.98h73.53z"></path>
<path fill="#1c3d92" d="M236.596 365.714h82.56c23.252 0 50.831 0.754 69.281 17.026 12.323 10.869 18.791 28.187 17.296 46.777-5.062 63.041-42.771 98.349-93.338 98.349h-40.719c-6.929 0-11.523 4.594-13.479 17.030l-11.361 72.282c-0.737 4.692-2.77 7.453-6.48 7.787h-50.858c-5.643 0-7.649-4.317-6.171-13.667l36.619-231.869c1.469-9.292 6.55-13.716 16.651-13.716z"></path>
<path fill="#1c2e7e" d="M259.381 537.611l14.418-91.254c1.264-8.013 5.65-11.827 14.358-11.827h82.479c13.652 0 24.683 2.131 33.328 6.058-8.287 56.106-44.574 87.279-92.097 87.279h-40.717c-5.36 0-9.364 2.74-11.77 9.743z"></path>
<path fill="#c8c8c8" d="M1426.286 0c60.594 0 109.714 49.121 109.714 109.714v804.571c0 60.594-49.121 109.714-109.714 109.714h-1316.571c-60.594 0-109.714-49.121-109.714-109.714v-804.571c0-60.594 49.121-109.714 109.714-109.714h1316.571zM1426.286 36.571h-1316.571c-38.56 0-70.15 29.838-72.942 67.684l-0.201 5.459v804.571c0 38.56 29.838 70.15 67.684 72.942l5.459 0.201h1316.571c38.56 0 70.15-29.838 72.942-67.684l0.201-5.459v-804.571c0-38.56-29.838-70.15-67.684-72.942l-5.459-0.201z"></path>
</svg>
