<!-- Generated by IcoMoon.io -->
<svg version="1.1" xmlns="http://www.w3.org/2000/svg" width="1536" height="1024" viewBox="0 0 1536 1024">
<title></title>
<g id="icomoon-ignore">
</g>
<path fill="#fff" d="M0 109.714h1536v768h-1536v-768z"></path>
<path fill="#005a9b" d="M538.13 693.866l110.82-365.405h98.879l-110.83 365.405z"></path>
<path fill="#005a9b" d="M493.923 328.565l-88.949 154.892c-22.634 40.565-35.871 61.058-42.243 86.698h-1.357c1.588-32.494-2.945-72.396-3.367-94.949l-9.83-146.64h-166.45l-1.699 9.83c42.746 0 68.114 21.478 75.089 65.42l32.444 290.054h102.437l207.136-365.304h-103.211z"></path>
<path fill="#005a9b" d="M1251.537 478.325c-1.106-27.006-2.020-63.661-0.191-85.843h-1.447c-6.020 18.152-31.871 72.617-43.238 99.412l-36.786 80.084h86.688l-5.025-93.653zM1262.874 693.863l-2.724-54.344-123.463-0.101-25.258 54.445h-107.352l194.653-364.711h131.765l32.966 364.711h-100.588z"></path>
<path fill="#005a9b" d="M851.637 704.241c-69.802 0-116.136-22.142-149.213-41.881l47.108-71.933c29.69 16.604 52.998 35.771 106.648 35.771 17.247 0 33.861-4.483 43.309-20.825 13.749-23.77-3.176-36.555-41.791-58.425l-19.086-12.403c-57.259-39.128-82.024-76.295-55.068-141.163 17.247-41.489 62.747-72.948 137.796-72.948 51.741 0 100.266 22.393 128.549 44.274l-54.153 63.501c-27.599-22.313-50.465-33.6-76.637-33.6-20.865 0-36.715 8.051-42.193 18.895-10.312 20.413 3.327 34.323 33.419 52.998l22.685 14.433c69.521 43.851 86.075 89.824 68.657 132.8-29.981 73.994-88.648 90.507-150.027 90.507z"></path>
<path fill="#005a9b" d="M1397.547 345.044c-10.202 0-18.142 8-18.142 19.468 0 10.694 6.945 19.448 18.142 19.448 10.071 0 18.011-7.93 18.011-19.448 0-11.468-7.94-19.468-18.011-19.468v0zM1397.547 388.051c-13.538 0-23.177-10.131-23.177-23.539 0-14.182 10.714-23.559 23.177-23.559 12.342 0 23.046 9.377 23.046 23.559 0 14.161-10.704 23.539-23.046 23.539v0zM1397.678 363.186c3.206 0 6.030-0.322 6.030-4.101 0-3.146-3.076-3.528-5.649-3.528h-5.176v7.629h4.794zM1392.884 377.98h-4.282v-26.062h9.89c6.302 0 9.508 2.191 9.508 7.488 0 4.724-2.895 6.674-6.804 7.116l7.307 11.458h-4.855l-6.724-11.136h-4.040v11.136z"></path>
<path fill="#005a9b" d="M0 216.674h1536v-106.96c0-60.594-49.121-109.714-109.714-109.714h-1316.571c-60.594 0-109.714 49.121-109.714 109.714v106.96z"></path>
<path fill="#faa929" d="M109.714 1021.245h1316.571c60.594 0 109.714-49.121 109.714-109.714v-106.96h-1536v106.96c0 60.594 49.121 109.714 109.714 109.714z"></path>
<path fill="#c8c8c8" d="M1426.286 0c60.594 0 109.714 49.121 109.714 109.714v804.571c0 60.594-49.121 109.714-109.714 109.714h-1316.571c-60.594 0-109.714-49.121-109.714-109.714v-804.571c0-60.594 49.121-109.714 109.714-109.714h1316.571zM1426.286 36.571h-1316.571c-38.56 0-70.15 29.838-72.942 67.684l-0.201 5.459v804.571c0 38.56 29.838 70.15 67.684 72.942l5.459 0.201h1316.571c38.56 0 70.15-29.838 72.942-67.684l0.201-5.459v-804.571c0-38.56-29.838-70.15-67.684-72.942l-5.459-0.201z"></path>
</svg>
